<svg width="31" height="48" viewBox="0 0 31 48" fill="none" xmlns="http://www.w3.org/2000/svg">
<path d="M30.552 38.64C30.6373 39.92 30.68 40.9013 30.68 41.584C30.68 43.632 30.424 45.68 29.912 47.728C28.0347 47.728 25.2187 47.7707 21.464 47.856L13.144 47.92C9.34665 47.92 5.80532 47.792 2.51999 47.536V46.32L1.23999 46.256C1.23999 44.0373 1.21865 41.456 1.17599 38.512C1.13332 35.568 1.09065 33.328 1.04799 31.792C0.919988 27.184 0.855988 22.5547 0.855988 17.904C0.855988 12.528 1.02665 6.98134 1.36799 1.264C4.69599 1.09334 8.53599 0.965336 12.888 0.880001C17.2827 0.752003 20.9093 0.688004 23.768 0.688004C27.1387 0.688004 28.9093 0.944003 29.08 1.456C29.08 1.75467 29.144 1.98934 29.272 2.16C29.4427 2.288 29.656 2.39467 29.912 2.48C30.168 2.56534 30.3173 2.65067 30.36 2.736V2.672C30.5307 3.65333 30.616 4.784 30.616 6.064C30.616 6.74667 30.5733 7.77067 30.488 9.136C30.4027 10.5867 30.36 11.696 30.36 12.464C28.184 12.976 25.432 13.232 22.104 13.232H19.8L17.304 13.168C15.9813 13.168 14.6587 13.232 13.336 13.36C13.336 14 13.2933 14.832 13.208 15.856L13.144 17.968V18.544L14.296 18.608L16.792 18.544C17.0053 18.544 18.072 18.608 19.992 18.736C20.0347 18.864 20.0773 19.0773 20.12 19.376C20.1627 19.632 20.248 19.8027 20.376 19.888C20.5467 19.9733 20.8453 20.016 21.272 20.016C21.4853 21.1253 21.592 22.4267 21.592 23.92C21.592 25.2427 21.5707 26.2453 21.528 26.928L21.464 30C20.184 30.3413 18.5413 30.512 16.536 30.512C14.9573 30.512 13.9973 30.5547 13.656 30.64C13.528 31.28 13.464 32.2613 13.464 33.584C13.464 34.864 13.4853 35.7813 13.528 36.336C18.648 36.592 22.7013 36.72 25.688 36.72C26.712 36.72 27.9067 36.6773 29.272 36.592V37.36L29.336 37.936C29.848 37.936 30.2533 37.9147 30.552 37.872V38.64ZM28.632 37.296C27.992 37.3387 27.0747 37.36 25.88 37.36C24.8133 37.36 23.576 37.3387 22.168 37.296C20.76 37.2533 19.672 37.2107 18.904 37.168C16.6 37.04 14.2533 36.976 11.864 36.976L11.8 36.912C11.6293 35.8453 11.544 34.3093 11.544 32.304C11.544 30.9387 11.6293 29.808 11.8 28.912C11.9707 28.784 12.3547 28.6987 12.952 28.656C13.5493 28.6133 14.2107 28.592 14.936 28.592C17.1547 28.592 18.6907 28.464 19.544 28.208L19.608 22.64C19.608 21.1467 19.544 20.0373 19.416 19.312V19.248C18.264 19.248 17.3893 19.2267 16.792 19.184C14.4453 19.184 12.696 19.1413 11.544 19.056L11.48 18.992C11.3093 18.352 11.224 17.5413 11.224 16.56C11.224 15.9627 11.2667 15.1093 11.352 14L11.416 11.504L11.672 11.44C12.44 11.3547 13.272 11.312 14.168 11.312C15.064 11.312 15.6613 11.312 15.96 11.312H21.016C24.1307 11.312 26.6053 11.0987 28.44 10.672V10.608L28.504 7.6C28.5893 6.23467 28.632 5.21067 28.632 4.528C28.632 3.54667 28.568 2.544 28.44 1.52C28.44 1.392 26.8827 1.328 23.768 1.328C17.112 1.328 9.83732 1.52 1.94399 1.904C1.68799 6.04267 1.55999 11.1627 1.55999 17.264C1.55999 20.4213 1.60265 25.1147 1.68799 31.344C1.81599 36.08 1.87999 40.8587 1.87999 45.68C4.39732 45.8933 7.49065 46 11.16 46C12.9947 46 15.832 45.9573 19.672 45.872L28.12 45.808C28.5467 44.144 28.76 42.3307 28.76 40.368C28.76 39.6853 28.7173 38.704 28.632 37.424V37.296Z" fill="#10A07E"/>
</svg>
