<svg width="31" height="49" viewBox="0 0 31 49" fill="none" xmlns="http://www.w3.org/2000/svg">
<path d="M30.936 47.472C29.3147 47.7707 27.2027 47.92 24.6 47.92C22.808 47.92 21.5067 47.9413 20.696 47.984L20.504 46.64C19.992 46.64 19.6293 46.6613 19.416 46.704C19.1173 44.4427 18.9253 41.1787 18.84 36.912C18.7547 33.7973 18.648 31.4933 18.52 30C17.5813 29.9147 17.0053 29.872 16.792 29.872C15.5547 29.872 14.424 29.9787 13.4 30.192C13.3573 30.832 13.336 31.8773 13.336 33.328L13.4 37.168C13.4427 38.0213 13.464 39.28 13.464 40.944C13.464 43.632 13.3147 45.7227 13.016 47.216C12.248 47.6853 11.2027 47.92 9.87999 47.92C9.36799 47.92 8.59999 47.8773 7.57599 47.792C6.55199 47.7067 5.86932 47.664 5.52799 47.664C4.75999 47.664 3.97065 47.8773 3.15999 48.304L3.03199 46.512C2.64799 46.5973 2.26399 46.768 1.87999 47.024C1.62399 43.9947 1.38932 38.448 1.17599 30.384C0.962654 22.2773 0.855988 14.8747 0.855988 8.176C0.855988 4.54933 0.877321 2.05333 0.919988 0.688L1.87999 0.623997C2.47732 0.751998 3.05332 0.815998 3.60799 0.815998C4.03465 0.815998 4.75999 0.773332 5.78399 0.688C6.97865 0.602665 7.91732 0.559998 8.59999 0.559998C9.11199 0.559998 9.53865 0.666664 9.87999 0.879997C10.2213 1.05066 10.456 1.41333 10.584 1.968C10.84 2.01066 11.0533 2.05333 11.224 2.096C11.4373 2.13866 11.608 2.18133 11.736 2.224C11.9067 3.71733 12.0347 5.89333 12.12 8.752C12.2907 12.8053 12.568 15.856 12.952 17.904H13.656C14.9787 17.904 16.1733 17.8187 17.24 17.648H17.688C17.944 14.576 18.072 11.5467 18.072 8.56C18.072 5.232 18.008 2.71466 17.88 1.008C19.928 0.410666 22.3813 0.112 25.24 0.112H26.136C26.8187 0.112 27.416 0.154666 27.928 0.239998V1.456C28.44 1.456 28.8667 1.47733 29.208 1.52L30.936 47.472ZM27.288 0.815998C26.8187 0.773332 26.136 0.751999 25.24 0.751999C22.4667 0.751999 20.2267 1.008 18.52 1.52C18.648 4.08 18.712 6.448 18.712 8.624C18.712 11.7387 18.5627 14.9387 18.264 18.224H18.2C16.7067 18.4373 15.2347 18.544 13.784 18.544C12.76 18.544 11.928 18.4587 11.288 18.288H11.224C10.84 16.2827 10.5627 13.2533 10.392 9.2C10.3067 6.21333 10.136 3.632 9.87999 1.456C9.32532 1.28533 8.55732 1.2 7.57599 1.2L5.84799 1.264L3.73599 1.392L3.15999 1.456C2.69065 1.456 2.22132 1.392 1.75199 1.264L1.55999 1.328C1.51732 2.69333 1.49599 4.976 1.49599 8.176C1.49599 14.96 1.58132 22.192 1.75199 29.872C1.96532 37.552 2.19999 42.9067 2.45599 45.936C2.75465 45.7653 3.22399 45.68 3.86399 45.68C4.37599 45.68 5.14399 45.7227 6.16799 45.808C7.06399 45.936 7.91732 46 8.72799 46C9.32532 46 9.79465 45.9787 10.136 45.936C10.52 45.8933 10.8613 45.7653 11.16 45.552C11.3733 44.0587 11.48 42.224 11.48 40.048C11.48 38.384 11.4587 37.1253 11.416 36.272L11.352 32.56C11.352 31.1947 11.416 29.808 11.544 28.4C12.696 28.1013 13.9973 27.952 15.448 27.952C16.4293 27.952 17.6027 28.0587 18.968 28.272L19.032 28.336C19.2453 30.0853 19.3947 32.8587 19.48 36.656C19.48 40.5813 19.6507 43.696 19.992 46H20.056C20.3973 45.9573 21.016 45.936 21.912 45.936H24.216C26.1787 45.936 27.7787 45.8293 29.016 45.616L27.288 0.815998Z" fill="#10A07E"/>
</svg>
